<svg width="207" height="270" xmlns="http://www.w3.org/2000/svg" xmlns:xlink="http://www.w3.org/1999/xlink"><defs><path id="a" d="M174.5 37.9L165.9 42.7 168.1 33.4 160.7 27.1 170.6 26.3 174.5 17.5 178.4 26.3 188.3 27.1 180.8 33.4 183 42.7z"/><path d="M121.24693,45.0231702 L121.24693,111.914332 C121.24693,113.226148 120.312985,114.776654 119.110865,115.311636 C119.110865,115.311636 109.993454,121.216227 76.5150531,121.216227 C43.0366519,121.216227 35.0750944,115.379493 35.0750944,115.379493 C33.9071426,114.777554 32.9603306,113.224049 32.9603306,111.914332 L32.9603306,45.0231702 L17.4153574,53.153846 C16.2487405,53.7640358 14.7850833,53.3209692 14.1527976,52.1761967 L1.15021299,28.6346216 C0.514967899,27.4844911 0.902049365,25.9813883 2.0139369,25.2778835 L32.4821476,6.00027351 C34.6966145,4.59915321 38.5375362,2.8914238 41.0996031,2.34844063 C41.0996031,2.34844063 45.8170042,2.87316398e-13 75.3378985,2.58670712e-13 C107.075154,2.28807425e-13 111.922444,2.37700678 111.922444,2.37700678 C114.471717,2.97696144 118.359837,4.54597357 120.622104,5.89058844 L153.336961,25.3351885 C154.467739,26.0072845 154.866488,27.4898491 154.234203,28.6346216 L141.231618,52.1761967 C140.596373,53.3263273 139.121507,53.7880044 137.939188,53.2082521 L121.24693,45.0231702 Z" id="b"/><rect id="c" x="67.1" y="8.1" width="20" height="13.9" rx="2.4"/><path d="M57.6955476,0.359257356 C43.7738491,1.01713386 41.0996031,2.34844063 41.0996031,2.34844063 C38.5375362,2.8914238 34.6966145,4.59915321 32.4821476,6.00027351 L2.0139369,25.2778835 C0.902049365,25.9813883 0.514967899,27.4844911 1.15021299,28.6346216 L14.1527976,52.1761967 C14.7850833,53.3209692 16.2487405,53.7640358 17.4153574,53.153846 L32.9603306,45.0231702 L32.9603306,111.914332 C32.9603306,113.224049 33.9071426,114.777554 35.0750944,115.379493 C35.0750944,115.379493 43.0366519,121.216227 76.5150531,121.216227 C109.993454,121.216227 119.110865,115.311636 119.110865,115.311636 C120.312985,114.776654 121.24693,113.226148 121.24693,111.914332 L121.24693,45.0231702 L137.939188,53.2082521 C139.121507,53.7880044 140.596373,53.3263273 141.231618,52.1761967 L154.234203,28.6346216 C154.866488,27.4898491 154.467739,26.0072845 153.336961,25.3351885 L120.622104,5.89058844 C118.359837,4.54597357 114.471717,2.97696144 111.922444,2.37700678 C111.922444,2.37700678 109.455138,1.1670931 96.5157311,0.473685374 C96.523011,0.699484551 96.5266824,0.926420078 96.5266824,1.15444026 C96.5266824,11.097286 87.8306858,19.6254844 77.6922078,19.6254844 C66.3765751,19.6254844 57.6805785,11.097286 57.6805785,1.15444026 C57.6805785,0.887869342 57.6855963,0.62278084 57.6955476,0.359257356 Z" id="d"/></defs><g fill="none" fill-rule="evenodd"><path fill="#FFF" d="M0.4 0.1H207.4V268.1H0.4z" transform="translate(.623 .853)"/><g stroke-linecap="round" stroke-linejoin="round" transform="translate(.623 .853)"><use fill="#F0F3F5" xlink:href="#a"/><path stroke="#C4CACC" stroke-width="1.8" d="M174.471429,38.9016118 L182.549368,43.528909 L184.363115,44.56788 L183.88327,42.5334547 L181.815293,33.7657486 L188.855946,27.8340534 L190.525353,26.4275909 L188.350828,26.2365396 L178.996426,25.4146722 L175.299928,17.1284334 L174.471429,15.2712305 L173.642929,17.1284334 L169.946431,25.4146722 L160.592029,26.2365396 L158.417504,26.4275909 L160.086912,27.8340534 L167.127564,33.7657486 L165.059588,42.5334547 L164.579742,44.56788 L166.393489,43.528909 L174.471429,38.9016118 Z"/></g><path d="M10.2203008,0.118403786 L33.8774436,0.118403786 L33.8774436,4.00204796 L10.2203008,4.00204796 L10.2203008,0.118403786 Z M37.8203008,0.118403786 L53.5917293,0.118403786 L53.5917293,4.00204796 L37.8203008,4.00204796 L37.8203008,0.118403786 Z M57.5345865,0.118403786 L73.306015,0.118403786 L73.306015,4.00204796 L57.5345865,4.00204796 L57.5345865,0.118403786 Z M77.2488722,0.118403786 L100.906015,0.118403786 L100.906015,4.00204796 L77.2488722,4.00204796 L77.2488722,0.118403786 Z" fill="#C4CACC" transform="translate(47.937 191.173)"/><path d="M0.363157895,15.6529805 L20.0774436,15.6529805 L20.0774436,19.5366246 L0.363157895,19.5366246 L0.363157895,15.6529805 Z M24.0203008,15.6529805 L31.906015,15.6529805 L31.906015,19.5366246 L24.0203008,19.5366246 L24.0203008,15.6529805 Z M35.8488722,15.6529805 L63.4488722,15.6529805 L63.4488722,19.5366246 L35.8488722,19.5366246 L35.8488722,15.6529805 Z M67.3917293,15.6529805 L75.2774436,15.6529805 L75.2774436,19.5366246 L67.3917293,19.5366246 L67.3917293,15.6529805 Z M79.2203008,15.6529805 L110.763158,15.6529805 L110.763158,19.5366246 L79.2203008,19.5366246 L79.2203008,15.6529805 Z" fill="#E1E4E5" transform="translate(47.937 191.173)"/><path d="M40.732349,1.21250644 C38.1492085,1.78615376 34.2732765,3.46118074 31.8469508,4.9963467 L1.37874011,24.2739567 C-0.26415591,25.3134371 -0.829055537,27.5082808 0.110290814,29.208996 L13.1128755,52.750571 C14.0583487,54.4623791 16.2292029,55.1149448 17.9659637,54.2065457 L31.7723306,46.9852343 L31.7723306,111.914332 C31.7723306,113.639759 32.927923,115.563455 34.4513041,116.393334 C34.7951649,116.62972 35.4177286,116.971155 36.3719445,117.382453 C38.0248086,118.094891 40.2005302,118.800198 42.9674752,119.454021 C50.7829611,121.300803 61.7816334,122.404227 76.5150531,122.404227 C91.2463277,122.404227 102.45928,121.288395 110.631842,119.422117 C113.519165,118.762771 115.824135,118.052476 117.606045,117.336592 C118.631821,116.924485 119.306818,116.586143 119.67817,116.35821 C121.256543,115.607376 122.43493,113.677519 122.43493,111.914332 L122.43493,46.9288466 L137.416148,54.2749162 C139.166946,55.1334236 141.329721,54.4557631 142.27154,52.750571 L155.274125,29.208996 C156.217502,27.5009834 155.624474,25.3128059 153.943946,24.3139573 L121.229089,4.86935729 C118.895842,3.482554 114.968073,1.89085428 112.299303,1.24558173 C112.032202,1.13708398 111.596446,1.00281566 110.94038,0.848973381 C109.704076,0.559069878 107.97582,0.27316066 105.667068,0.00824758172 C103.195055,-0.275398715 100.183885,-0.519447147 96.5793034,-0.712612464 L95.2866336,-0.781885132 L95.3283481,0.511967244 C95.3352321,0.725488605 95.3386824,0.939662479 95.3386824,1.15444026 C95.3386824,10.4359348 87.1796968,18.4374844 77.6922078,18.4374844 C67.202861,18.4374844 58.8685785,10.5991729 58.8685785,1.15444026 C58.8685785,0.903355404 58.8732939,0.653211111 58.8827015,0.404087365 L58.931512,-0.888474439 L57.6394707,-0.827418412 C53.3282643,-0.623690296 49.8112633,-0.343442636 47.0062084,-0.00523767763 C44.8317196,0.256940042 43.1954485,0.540038536 42.0167036,0.827270506 C41.4063303,0.976003895 40.9926318,1.10642788 40.732349,1.21250644 Z" stroke="#FFF" stroke-width="2.4" stroke-linecap="round" stroke-linejoin="round" transform="translate(27.6 45.654)"/><g transform="translate(27.6 45.654)"><use fill="#FFF" xlink:href="#b"/><path stroke="#C4CACC" stroke-width="2.4" d="M120.05893,45.0231702 L120.05893,111.914332 C120.05893,112.788838 119.372725,113.894767 118.62784,114.226264 L118.46509,114.31448 C118.427678,114.338709 118.312317,114.405272 118.111415,114.508346 C117.75088,114.693319 117.289687,114.903111 116.720294,115.131865 C115.057561,115.799869 112.871688,116.473463 110.102878,117.105746 C102.115057,118.929838 91.0773796,120.028227 76.5150531,120.028227 C61.9548718,120.028227 51.1363593,118.942877 43.5138714,117.1417 C40.8775256,116.518737 38.833307,115.85606 37.3124311,115.200513 C36.4402401,114.824571 35.9519819,114.549301 35.7774982,114.421384 L35.6193377,114.32349 C34.8472426,113.925567 34.1483306,112.779881 34.1483306,111.914332 L34.1483306,45.0231702 L34.1483306,43.0611062 L32.4097243,43.9704705 L16.8647511,52.1011462 C16.2720255,52.4111667 15.5138622,52.1832604 15.1927198,51.6018224 L2.19013517,28.0602473 C1.85914087,27.4609721 2.06799278,26.6495053 2.64913368,26.2818103 L33.1173444,7.00420032 C35.3552144,5.58827256 39.0572489,3.9956667 41.3459073,3.51062746 L41.4937513,3.47929463 L41.6290416,3.41194373 C41.6173281,3.417775 41.6533691,3.40292956 41.7464496,3.370906 C41.9436572,3.30305839 42.2181373,3.22370988 42.5792183,3.13572306 C43.6592742,2.87253926 45.2043319,2.60522198 47.2906224,2.35367831 C53.3246945,1.62615134 62.4664477,1.188 75.3378985,1.188 C89.1811647,1.188 98.9729136,1.63173013 105.396216,2.3687592 C107.619072,2.62381635 109.258425,2.8950181 110.397941,3.16222556 C110.77958,3.25171682 111.068767,3.33249931 111.275699,3.40163942 C111.373636,3.43436192 111.411505,3.4496055 111.39938,3.44365967 L111.519771,3.5026965 L111.650291,3.53341367 C114.084375,4.10625929 117.859271,5.63045676 120.015119,6.91181958 L152.729976,26.3564196 C153.307372,26.6996042 153.517519,27.4750138 153.19428,28.0602473 L140.191696,51.6018224 C139.863319,52.1963577 139.076617,52.4428544 138.462229,52.1415881 L121.769971,43.9565061 L120.05893,43.1174938 L120.05893,45.0231702 Z"/></g><g transform="translate(27.6 45.654)"><use fill="#FFF" xlink:href="#c"/><rect stroke="#E1E4E5" stroke-width="1.2" x="67.7" y="8.7" width="18.8" height="12.7" rx="2.4"/></g><path d="M71.8064345,13.276063 C71.8064345,12.9572731 72.0683198,12.6988429 72.376035,12.6988429 L81.8312259,12.6988429 C82.1458076,12.6988429 82.4008264,12.9665964 82.4008264,13.276063 C82.4008264,13.5948529 82.1389411,13.8532831 81.8312259,13.8532831 L72.376035,13.8532831 C72.0614533,13.8532831 71.8064345,13.5855297 71.8064345,13.276063 Z M71.8064345,15.5849435 C71.8064345,15.2661537 72.0683198,15.0077234 72.376035,15.0077234 L81.8312259,15.0077234 C82.1458076,15.0077234 82.4008264,15.2754769 82.4008264,15.5849435 C82.4008264,15.9037334 82.1389411,16.1621637 81.8312259,16.1621637 L72.376035,16.1621637 C72.0614533,16.1621637 71.8064345,15.8944102 71.8064345,15.5849435 Z" fill="#E1E4E5" transform="translate(27.6 45.654)"/><g transform="translate(27.6 45.654)"><path d="M57.6955476,0.359257356 C43.7738491,1.01713386 41.0996031,2.34844063 41.0996031,2.34844063 C38.5375362,2.8914238 34.6966145,4.59915321 32.4821476,6.00027351 L2.0139369,25.2778835 C0.902049365,25.9813883 0.514967899,27.4844911 1.15021299,28.6346216 L14.1527976,52.1761967 C14.7850833,53.3209692 16.2487405,53.7640358 17.4153574,53.153846 L32.9603306,45.0231702 L32.9603306,111.914332 C32.9603306,113.224049 33.9071426,114.777554 35.0750944,115.379493 C35.0750944,115.379493 43.0366519,121.216227 76.5150531,121.216227 C109.993454,121.216227 119.110865,115.311636 119.110865,115.311636 C120.312985,114.776654 121.24693,113.226148 121.24693,111.914332 L121.24693,45.0231702 L137.939188,53.2082521 C139.121507,53.7880044 140.596373,53.3263273 141.231618,52.1761967 L154.234203,28.6346216 C154.866488,27.4898491 154.467739,26.0072845 153.336961,25.3351885 L120.622104,5.89058844 C118.359837,4.54597357 114.471717,2.97696144 111.922444,2.37700678 C111.922444,2.37700678 109.455138,1.1670931 96.5157311,0.473685374 C96.523011,0.699484551 96.5266824,0.926420078 96.5266824,1.15444026 C96.5266824,11.097286 87.8306858,19.6254844 77.6922078,19.6254844 C66.3765751,19.6254844 57.6805785,11.097286 57.6805785,1.15444026 C57.6805785,0.887869342 57.6855963,0.62278084 57.6955476,0.359257356 Z" fill="#FFF"/><mask id="e" fill="#fff"><use xlink:href="#d"/></mask><path stroke="#C4CACC" stroke-width="2.4" d="M56.498153,1.60851144 C56.7582471,12.1927671 66.0876316,20.8134844 77.6922078,20.8134844 C88.2857202,20.8134844 97.3787955,12.0845527 97.705592,1.73063174 C100.713158,1.90878077 103.264669,2.12417911 105.396216,2.3687592 C107.619072,2.62381635 109.258425,2.8950181 110.397941,3.16222556 C110.77958,3.25171682 111.068767,3.33249931 111.275699,3.40163942 C111.373636,3.43436192 111.411505,3.4496055 111.39938,3.44365967 L111.519771,3.5026965 L111.650291,3.53341367 C114.084375,4.10625929 117.859271,5.63045676 120.015119,6.91181958 L152.729976,26.3564196 C153.307372,26.6996042 153.517519,27.4750138 153.19428,28.0602473 L140.191696,51.6018224 C139.863319,52.1963577 139.076617,52.4428544 138.462229,52.1415881 L121.769971,43.9565061 L120.05893,43.1174938 L120.05893,45.0231702 L120.05893,111.914332 C120.05893,112.788838 119.372725,113.894767 118.62784,114.226264 L118.46509,114.31448 C118.427678,114.338709 118.312317,114.405272 118.111415,114.508346 C117.75088,114.693319 117.289687,114.903111 116.720294,115.131865 C115.057561,115.799869 112.871688,116.473463 110.102878,117.105746 C102.115057,118.929838 91.0773796,120.028227 76.5150531,120.028227 C61.9548718,120.028227 51.1363593,118.942877 43.5138714,117.1417 C40.8775256,116.518737 38.833307,115.85606 37.3124311,115.200513 C36.4402401,114.824571 35.9519819,114.549301 35.7774982,114.421384 L35.6193377,114.32349 C34.8472426,113.925567 34.1483306,112.779881 34.1483306,111.914332 L34.1483306,45.0231702 L34.1483306,43.0611062 L32.4097243,43.9704705 L16.8647511,52.1011462 C16.2720255,52.4111667 15.5138622,52.1832604 15.1927198,51.6018224 L2.19013517,28.0602473 C1.85914087,27.4609721 2.06799278,26.6495053 2.64913368,26.2818103 L33.1173444,7.00420032 C35.3552144,5.58827256 39.0572489,3.9956667 41.3459073,3.51062746 L41.4937513,3.47929463 L41.6290416,3.41194373 C41.6173281,3.417775 41.6533691,3.40292956 41.7464496,3.370906 C41.9436572,3.30305839 42.2181373,3.22370988 42.5792183,3.13572306 C43.6592742,2.87253926 45.2043319,2.60522198 47.2906224,2.35367831 C49.7604039,2.05589721 52.8100872,1.80278639 56.498153,1.60851144 Z"/><path d="M50.7442162,3.13278715 C52.0532554,16.2788339 63.3551095,26.552126 77.1036305,26.552126 C90.8048419,26.552126 102.076196,16.3494144 103.449177,3.2683939 L101.099889,3.09924061 C99.8161399,14.9838522 89.5624845,24.2432455 77.1036305,24.2432455 C64.5914489,24.2432455 54.3033842,14.9044168 53.0913806,2.94648816 L50.7442162,3.13278715 Z" fill="#C4CACC" fill-rule="nonzero" mask="url(#e)"/></g></g></svg>
